<svg width="36" height="48" viewBox="0 0 36 48" fill="none" xmlns="http://www.w3.org/2000/svg">
<g clip-path="url(#clip0_15_53)">
<path d="M9.06414 33.9944C8.25307 33.1797 8.67587 33.4094 6.71961 32.8834C5.83201 32.6444 5.05174 32.185 4.34614 31.6347L0.111606 42.0634C-0.298127 43.0731 0.467207 44.17 1.55174 44.1288L6.46947 43.9403L9.85187 47.5291C10.5985 48.3203 11.9089 48.0738 12.3187 47.0641L17.1767 35.0997C16.1649 35.6659 15.0421 35.9978 13.8811 35.9978C12.0611 35.9978 10.3512 35.2863 9.06414 33.9944ZM35.7276 42.0634L31.4931 31.6347C30.7875 32.1859 30.0072 32.6444 29.1196 32.8834C27.1531 33.4122 27.5843 33.1816 26.7751 33.9944C25.488 35.2863 23.7772 35.9978 21.9572 35.9978C20.7961 35.9978 19.6733 35.665 18.6616 35.0997L23.5196 47.0641C23.9293 48.0738 25.2407 48.3203 25.9864 47.5291L29.3697 43.9403L34.2875 44.1288C35.372 44.17 36.1373 43.0722 35.7276 42.0634ZM24.5463 31.8728C25.9724 30.415 26.1357 30.5406 28.1667 29.9847C29.4631 29.6294 30.4767 28.5934 30.8239 27.2678C31.522 24.6053 31.3409 24.9269 33.2459 22.9788C34.1951 22.0084 34.5656 20.5938 34.2184 19.2681C33.5212 16.6075 33.5203 16.9788 34.2184 14.3153C34.5656 12.9897 34.1951 11.575 33.2459 10.6047C31.3409 8.65658 31.522 8.9772 30.8239 6.31564C30.4767 4.99001 29.4631 3.95408 28.1667 3.59876C25.5645 2.88533 25.8781 3.07189 23.9713 1.12283C23.0221 0.152514 21.638 -0.227174 20.3416 0.128139C17.7404 0.840639 18.1035 0.841576 15.4976 0.128139C14.2012 -0.227174 12.8171 0.151576 11.8679 1.12283C9.96294 3.07095 10.2765 2.88533 7.67347 3.59876C6.37707 3.95408 5.36347 4.99001 5.01627 6.31564C4.31907 8.9772 4.49921 8.65658 2.59427 10.6047C1.64507 11.575 1.27361 12.9897 1.62174 14.3153C2.31894 16.9741 2.31987 16.6028 1.62174 19.2672C1.27454 20.5928 1.64507 22.0075 2.59427 22.9788C4.49921 24.9269 4.31814 24.6053 5.01627 27.2678C5.36347 28.5934 6.37707 29.6294 7.67347 29.9847C9.76227 30.5566 9.91814 30.4666 11.2929 31.8728C12.5277 33.1356 14.4513 33.3616 15.9353 32.4184C16.5288 32.04 17.2172 31.8391 17.9201 31.8391C18.623 31.8391 19.3114 32.04 19.9048 32.4184C21.3879 33.3616 23.3115 33.1356 24.5463 31.8728ZM9.11454 16.4941C9.11454 11.5225 13.0569 7.4922 17.9196 7.4922C22.7823 7.4922 26.7247 11.5225 26.7247 16.4941C26.7247 21.4656 22.7823 25.4959 17.9196 25.4959C13.0569 25.4959 9.11454 21.4656 9.11454 16.4941Z" fill="#0064C0" fill-opacity="0.96"/>
</g>
<defs>
<clipPath id="clip0_15_53">
<rect width="35.84" height="48" fill="white"/>
</clipPath>
</defs>
</svg>
