<svg width="30" height="33" viewBox="0 0 30 33" fill="none" xmlns="http://www.w3.org/2000/svg">
<path d="M2.00824 0.00143097C1.8811 0.00255395 1.75944 0.0617125 1.66954 0.166131C1.57964 0.27055 1.52871 0.411849 1.52774 0.559515V4.01821C1.52774 4.32158 1.74581 4.57629 2.00824 4.57629H27.5609C27.8233 4.57629 28.0414 4.32158 28.0414 4.01821V0.558084C28.0404 0.410418 27.9895 0.269119 27.8996 0.1647C27.8097 0.0602815 27.6881 0.00112298 27.5609 0L2.00824 0.00143097ZM1.9528 5.90568C1.83367 5.90448 1.71802 5.95222 1.62627 6.04046C1.53451 6.1287 1.47256 6.25177 1.45135 6.38792L0.00985638 15.4232C0 15.4618 0 15.499 0 15.5376V18.567C0 18.8962 0.229161 19.1623 0.512532 19.1623H29.0566C29.34 19.1623 29.5691 18.8962 29.5691 18.567V15.5248C29.5691 15.4861 29.5691 15.4489 29.5581 15.4103L28.1178 6.38792C28.0966 6.25177 28.0346 6.1287 27.9429 6.04046C27.8511 5.95222 27.7355 5.90448 27.6164 5.90568H1.9528ZM2.09448 20.4803C2.01992 20.4797 1.946 20.4963 1.87702 20.5292C1.80804 20.5621 1.74536 20.6106 1.69264 20.6718C1.63991 20.733 1.59819 20.8058 1.56988 20.8859C1.54157 20.9661 1.52725 21.0519 1.52774 21.1385V32.3417C1.52774 32.7095 1.77785 33 2.09448 33H19.4762C19.7928 33 20.043 32.7095 20.043 32.3417V22.9129C20.043 22.5452 20.2943 22.2547 20.6109 22.2547H25.5638C25.8816 22.2547 26.1317 22.5452 26.1317 22.9129V32.3417C26.1317 32.7095 26.3831 33 26.6985 33H27.4623C27.5371 33.0009 27.6112 32.9846 27.6804 32.9518C27.7496 32.9191 27.8125 32.8707 27.8654 32.8094C27.9182 32.7481 27.9601 32.6752 27.9884 32.5948C28.0167 32.5145 28.031 32.4285 28.0303 32.3417V21.1385C28.0306 21.052 28.0162 20.9662 27.9878 20.8862C27.9595 20.8061 27.9177 20.7334 27.8651 20.6722C27.8124 20.611 27.7498 20.5625 27.6808 20.5296C27.6119 20.4967 27.5381 20.4799 27.4636 20.4803H2.09448ZM4.36391 22.6983H14.0318C14.293 22.6983 14.5123 22.9516 14.5123 23.2564V30.2382C14.5123 30.5415 14.293 30.7962 14.0318 30.7962H4.36391C4.23678 30.7951 4.11512 30.736 4.02522 30.6315C3.93532 30.5271 3.88438 30.3858 3.88341 30.2382V23.2549C3.88341 22.9387 4.10272 22.6969 4.36391 22.6969V22.6983Z" fill="#67B9E8"/>
</svg>
